{
	"asset":{
		"generator":"Khronos glTF Blender I/O v4.4.56",
		"version":"2.0"
	},
	"scene":0,
	"scenes":[
		{
			"name":"Scene",
			"nodes":[
				3
			]
		}
	],
	"nodes":[
		{
			"mesh":0,
			"name":"Klipsu",
			"translation":[
				-0.0049323891289532185,
				1.1195157766342163,
				0.005055730696767569
			]
		},
		{
			"mesh":1,
			"name":"Laeppae",
			"translation":[
				-0.004260149784386158,
				1.1063721179962158,
				-0.007081775926053524
			]
		},
		{
			"mesh":2,
			"name":"Sisapinta"
		},
		{
			"children":[
				0,
				1,
				2
			],
			"mesh":3,
			"name":"Tolkki"
		}
	],
	"materials":[
		{
			"doubleSided":true,
			"name":"Klipsu",
			"pbrMetallicRoughness":{
				"baseColorFactor":[
					0.01654006913304329,
					0,
					0.8001017570495605,
					1
				],
				"metallicFactor":0,
				"roughnessFactor":0.5
			}
		},
		{
			"doubleSided":true,
			"name":"Laeppae",
			"pbrMetallicRoughness":{
				"baseColorFactor":[
					0.8001489639282227,
					0.060703955590724945,
					0,
					1
				],
				"metallicFactor":0,
				"roughnessFactor":0.5
			}
		},
		{
			"doubleSided":true,
			"name":"Sisapinta",
			"pbrMetallicRoughness":{
				"baseColorFactor":[
					0.800000011920929,
					0.800000011920929,
					0.800000011920929,
					1
				],
				"metallicFactor":0,
				"roughnessFactor":0.5
			}
		},
		{
			"name":"Base",
			"pbrMetallicRoughness":{
				"baseColorFactor":[
					0.800000011920929,
					0.800000011920929,
					0.800000011920929,
					1
				],
				"metallicFactor":0,
				"roughnessFactor":0.5
			}
		},
		{
			"doubleSided":true,
			"name":"Label",
			"pbrMetallicRoughness":{
				"baseColorFactor":[
					0.00030120706651359797,
					0.0004294512909837067,
					0.001958512933924794,
					1
				],
				"metallicFactor":0,
				"roughnessFactor":0.5
			}
		}
	],
	"meshes":[
		{
			"name":"KlipsuMesh",
			"primitives":[
				{
					"attributes":{
						"POSITION":0,
						"NORMAL":1,
						"TEXCOORD_0":2,
						"TANGENT":3
					},
					"indices":4,
					"material":0
				}
			]
		},
		{
			"name":"LaeppaeMesh",
			"primitives":[
				{
					"attributes":{
						"POSITION":5,
						"NORMAL":6,
						"TEXCOORD_0":7,
						"TANGENT":8
					},
					"indices":9,
					"material":1
				}
			]
		},
		{
			"name":"SisapintaMesh",
			"primitives":[
				{
					"attributes":{
						"POSITION":10,
						"NORMAL":11,
						"TEXCOORD_0":12,
						"TANGENT":13
					},
					"indices":14,
					"material":2
				}
			]
		},
		{
			"name":"TolkkiMesh",
			"primitives":[
				{
					"attributes":{
						"POSITION":15,
						"NORMAL":16,
						"TEXCOORD_0":17,
						"TANGENT":18
					},
					"indices":19,
					"material":3
				},
				{
					"attributes":{
						"POSITION":20,
						"NORMAL":21,
						"TEXCOORD_0":22,
						"TANGENT":23
					},
					"indices":24,
					"material":4
				}
			]
		}
	],
	"accessors":[
		{
			"bufferView":0,
			"componentType":5126,
			"count":1431,
			"max":[
				0.08738687634468079,
				0.006014745682477951,
				0.18185780942440033
			],
			"min":[
				-0.08619076013565063,
				-0.008124207146465778,
				-0.09223335981369019
			],
			"type":"VEC3"
		},
		{
			"bufferView":1,
			"componentType":5126,
			"count":1431,
			"type":"VEC3"
		},
		{
			"bufferView":2,
			"componentType":5126,
			"count":1431,
			"type":"VEC2"
		},
		{
			"bufferView":3,
			"componentType":5126,
			"count":1431,
			"type":"VEC4"
		},
		{
			"bufferView":4,
			"componentType":5123,
			"count":6150,
			"type":"SCALAR"
		},
		{
			"bufferView":5,
			"componentType":5126,
			"count":297,
			"max":[
				0.13453030586242676,
				6.78526412229985e-05,
				0.0016546796541661024
			],
			"min":[
				-0.1278754323720932,
				-0.0033637993037700653,
				-0.18404603004455566
			],
			"type":"VEC3"
		},
		{
			"bufferView":6,
			"componentType":5126,
			"count":297,
			"type":"VEC3"
		},
		{
			"bufferView":7,
			"componentType":5126,
			"count":297,
			"type":"VEC2"
		},
		{
			"bufferView":8,
			"componentType":5126,
			"count":297,
			"type":"VEC4"
		},
		{
			"bufferView":9,
			"componentType":5123,
			"count":1572,
			"type":"SCALAR"
		},
		{
			"bufferView":10,
			"componentType":5126,
			"count":197,
			"max":[
				0.30636167526245117,
				1.10723078250885,
				0.30636167526245117
			],
			"min":[
				-0.30636167526245117,
				0.08734729886054993,
				-0.30636167526245117
			],
			"type":"VEC3"
		},
		{
			"bufferView":11,
			"componentType":5126,
			"count":197,
			"type":"VEC3"
		},
		{
			"bufferView":12,
			"componentType":5126,
			"count":197,
			"type":"VEC2"
		},
		{
			"bufferView":13,
			"componentType":5126,
			"count":197,
			"type":"VEC4"
		},
		{
			"bufferView":14,
			"componentType":5123,
			"count":858,
			"type":"SCALAR"
		},
		{
			"bufferView":15,
			"componentType":5126,
			"count":1738,
			"max":[
				0.33055001497268677,
				1.1419999599456787,
				0.33055001497268677
			],
			"min":[
				-0.33055001497268677,
				3.725290298461914e-08,
				-0.33055001497268677
			],
			"type":"VEC3"
		},
		{
			"bufferView":16,
			"componentType":5126,
			"count":1738,
			"type":"VEC3"
		},
		{
			"bufferView":17,
			"componentType":5126,
			"count":1738,
			"type":"VEC2"
		},
		{
			"bufferView":18,
			"componentType":5126,
			"count":1738,
			"type":"VEC4"
		},
		{
			"bufferView":19,
			"componentType":5123,
			"count":9006,
			"type":"SCALAR"
		},
		{
			"bufferView":20,
			"componentType":5126,
			"count":66,
			"max":[
				0.33055001497268677,
				0.9763150215148926,
				0.33055001497268677
			],
			"min":[
				-0.33055001497268677,
				0.08734729140996933,
				-0.33055001497268677
			],
			"type":"VEC3"
		},
		{
			"bufferView":21,
			"componentType":5126,
			"count":66,
			"type":"VEC3"
		},
		{
			"bufferView":22,
			"componentType":5126,
			"count":66,
			"type":"VEC2"
		},
		{
			"bufferView":23,
			"componentType":5126,
			"count":66,
			"type":"VEC4"
		},
		{
			"bufferView":24,
			"componentType":5123,
			"count":192,
			"type":"SCALAR"
		}
	],
	"bufferViews":[
		{
			"buffer":0,
			"byteLength":17172,
			"byteOffset":0,
			"target":34962
		},
		{
			"buffer":0,
			"byteLength":17172,
			"byteOffset":17172,
			"target":34962
		},
		{
			"buffer":0,
			"byteLength":11448,
			"byteOffset":34344,
			"target":34962
		},
		{
			"buffer":0,
			"byteLength":22896,
			"byteOffset":45792,
			"target":34962
		},
		{
			"buffer":0,
			"byteLength":12300,
			"byteOffset":68688,
			"target":34963
		},
		{
			"buffer":0,
			"byteLength":3564,
			"byteOffset":80988,
			"target":34962
		},
		{
			"buffer":0,
			"byteLength":3564,
			"byteOffset":84552,
			"target":34962
		},
		{
			"buffer":0,
			"byteLength":2376,
			"byteOffset":88116,
			"target":34962
		},
		{
			"buffer":0,
			"byteLength":4752,
			"byteOffset":90492,
			"target":34962
		},
		{
			"buffer":0,
			"byteLength":3144,
			"byteOffset":95244,
			"target":34963
		},
		{
			"buffer":0,
			"byteLength":2364,
			"byteOffset":98388,
			"target":34962
		},
		{
			"buffer":0,
			"byteLength":2364,
			"byteOffset":100752,
			"target":34962
		},
		{
			"buffer":0,
			"byteLength":1576,
			"byteOffset":103116,
			"target":34962
		},
		{
			"buffer":0,
			"byteLength":3152,
			"byteOffset":104692,
			"target":34962
		},
		{
			"buffer":0,
			"byteLength":1716,
			"byteOffset":107844,
			"target":34963
		},
		{
			"buffer":0,
			"byteLength":20856,
			"byteOffset":109560,
			"target":34962
		},
		{
			"buffer":0,
			"byteLength":20856,
			"byteOffset":130416,
			"target":34962
		},
		{
			"buffer":0,
			"byteLength":13904,
			"byteOffset":151272,
			"target":34962
		},
		{
			"buffer":0,
			"byteLength":27808,
			"byteOffset":165176,
			"target":34962
		},
		{
			"buffer":0,
			"byteLength":18012,
			"byteOffset":192984,
			"target":34963
		},
		{
			"buffer":0,
			"byteLength":792,
			"byteOffset":210996,
			"target":34962
		},
		{
			"buffer":0,
			"byteLength":792,
			"byteOffset":211788,
			"target":34962
		},
		{
			"buffer":0,
			"byteLength":528,
			"byteOffset":212580,
			"target":34962
		},
		{
			"buffer":0,
			"byteLength":1056,
			"byteOffset":213108,
			"target":34962
		},
		{
			"buffer":0,
			"byteLength":384,
			"byteOffset":214164,
			"target":34963
		}
	],
	"buffers":[
		{
			"byteLength":214548,
			"uri":"can.bin"
		}
	]
}
